<svg xmlns="http://www.w3.org/2000/svg" viewBox="0 0 373.65 180"><path d="M211.79,54.48l-1.53,8.44H196.07l-8,45.08H177.29l8-45.08H171l1.53-8.44Z" fill="#333"/><path d="M228.89,62.84l-2.46,13.88h18L243,85H225l-2.53,14.49h20.32L241.23,108H210.1l9.51-53.6h31l-1.45,8.44Z" fill="#333"/><path d="M285.55,97.8H264.16L258.87,108H247.6l28.75-53.6h12.5l9.74,53.6H287.24Zm-1.38-8.36-3.83-22.69L268.53,89.44Z" fill="#333"/><path d="M373.65,54.48,364.22,108H353.41l6.13-34.66L339.14,108h-8.2l-8.2-34.73L316.6,108H305.79l9.51-53.52h12.19L337.54,94.2l23.92-39.72Z" fill="#333"/><path d="M136.59,0H7.41A7.41,7.41,0,0,0,0,7.41V107.1c0,39.7,31.75,72.6,71.45,72.9A72,72,0,0,0,144,108V7.41A7.41,7.41,0,0,0,136.59,0ZM100.22,31.13l2-4.13,2.06,4.1,4.55.62L105.57,35l.81,4.51-4.08-2.1-4,2.17L99,35l-3.31-3.18Zm-63.82,0,2-4.13,2.07,4.1,4.54.62L41.74,35l.81,4.51-4.07-2.1-4,2.17L35.17,35l-3.31-3.18ZM82,110.43H70.58V90.14a7.72,7.72,0,0,0-1.91-5.6,7,7,0,0,0-5.25-2,7,7,0,0,0-5.26,2,7.76,7.76,0,0,0-1.91,5.6v20.29H44.86V90.14A7.72,7.72,0,0,0,43,84.54a7,7,0,0,0-5.25-2,7,7,0,0,0-5.26,2,7.76,7.76,0,0,0-1.91,5.6v20.29H19.08V73.06H30.53v4.69A12.12,12.12,0,0,1,35.09,74a14.22,14.22,0,0,1,6.36-1.37A15.52,15.52,0,0,1,49,74.46a13,13,0,0,1,5.19,5.16,15.1,15.1,0,0,1,5.29-5,14.27,14.27,0,0,1,7.3-1.94q7,0,11.09,4.22T82,88.6ZM78.22,32.18l1.62,9L71.69,37l-8.08,4.33,1.47-9.05-6.61-6.35,9.06-1.39,4-8.26,4.12,8.19,9.09,1.25Zm26.52,96H92.41l8.58-19L85.78,73.06h12.8l8.64,23.37,8.57-23.37h12.39Z" fill="#e0013f"/></svg>